<?xml version="1.0" encoding="UTF-8"?>
<!DOCTYPE svg PUBLIC "-//W3C//DTD SVG 1.1//EN" "http://www.w3.org/Graphics/SVG/1.1/DTD/svg11.dtd">
<svg xmlns="http://www.w3.org/2000/svg" version="1.1" width="24px" height="26px" style="shape-rendering:geometricPrecision; text-rendering:geometricPrecision; image-rendering:optimizeQuality; fill-rule:evenodd; clip-rule:evenodd" xmlns:xlink="http://www.w3.org/1999/xlink">
<g><path style="opacity:1" fill="#fdea38" d="M -0.5,-0.5 C 7.5,-0.5 15.5,-0.5 23.5,-0.5C 23.5,8.16667 23.5,16.8333 23.5,25.5C 22.1667,25.5 20.8333,25.5 19.5,25.5C 19.6646,22.4816 19.498,19.4816 19,16.5C 17.4167,15.0289 15.5834,14.0289 13.5,13.5C 13.5,12.8333 13.5,12.1667 13.5,11.5C 14.8333,9.5 14.8333,7.5 13.5,5.5C 9.55008,4.34403 7.88342,6.0107 8.5,10.5C 8.5,11.8333 8.5,13.1667 8.5,14.5C 6.82972,14.7512 5.32972,15.4178 4,16.5C 2.85123,19.3926 2.35123,22.3926 2.5,25.5C 1.5,25.5 0.5,25.5 -0.5,25.5C -0.5,16.8333 -0.5,8.16667 -0.5,-0.5 Z"/></g>
<g><path style="opacity:1" fill="#1f1816" d="M 13.5,5.5 C 13.5,6.5 13.5,7.5 13.5,8.5C 12.1266,8.34332 10.7932,8.50999 9.5,9C 10.7119,10.1068 10.3786,10.6068 8.5,10.5C 7.88342,6.0107 9.55008,4.34403 13.5,5.5 Z"/></g>
<g><path style="opacity:1" fill="#8f7356" d="M 13.5,5.5 C 14.8333,7.5 14.8333,9.5 13.5,11.5C 12.1667,11.5 10.8333,11.5 9.5,11.5C 9.5,12.5 9.5,13.5 9.5,14.5C 9.16667,14.5 8.83333,14.5 8.5,14.5C 8.5,13.1667 8.5,11.8333 8.5,10.5C 10.3786,10.6068 10.7119,10.1068 9.5,9C 10.7932,8.50999 12.1266,8.34332 13.5,8.5C 13.5,7.5 13.5,6.5 13.5,5.5 Z"/></g>
<g><path style="opacity:1" fill="#423535" d="M 13.5,11.5 C 13.5,12.1667 13.5,12.8333 13.5,13.5C 12.384,16.6483 11.0507,16.9816 9.5,14.5C 9.5,13.5 9.5,12.5 9.5,11.5C 10.8333,11.5 12.1667,11.5 13.5,11.5 Z"/></g>
<g><path style="opacity:1" fill="#98bcc9" d="M 13.5,13.5 C 15.5834,14.0289 17.4167,15.0289 19,16.5C 19.498,19.4816 19.6646,22.4816 19.5,25.5C 13.8333,25.5 8.16667,25.5 2.5,25.5C 2.35123,22.3926 2.85123,19.3926 4,16.5C 5.32972,15.4178 6.82972,14.7512 8.5,14.5C 8.83333,14.5 9.16667,14.5 9.5,14.5C 11.0507,16.9816 12.384,16.6483 13.5,13.5 Z"/></g>
</svg>
